<?xml version="1.0" encoding="UTF-8"?>
<!--Generator: Apple Native CoreSVG 129-->
<!DOCTYPE svg
PUBLIC "-//W3C//DTD SVG 1.1//EN"
       "http://www.w3.org/Graphics/SVG/1.1/DTD/svg11.dtd">
<svg version="1.1" xmlns="http://www.w3.org/2000/svg" xmlns:xlink="http://www.w3.org/1999/xlink" width="3300" height="2200">
 <!--glyph: "uni100194.medium", point size: 100.000000, font version: "Version 16.0d9e1", template writer version: "8"-->
 <g id="Notes">
  <rect height="2200" id="artboard" style="fill:white;opacity:1" width="3300" x="0" y="0"/>
  <line id="" style="fill:none;stroke:black;opacity:1;stroke-width:0.5;" x1="263" x2="3036" y1="292" y2="292"/>
  <text style="stroke:none;fill:black;font-family:-apple-system,&quot;SF Pro Display&quot;,&quot;SF Pro Text&quot;,Helvetica,sans-serif;font-weight:bold;" transform="matrix(1 0 0 1 263 322)">Weight/Scale Variations</text>
  <text style="stroke:none;fill:black;font-family:-apple-system,&quot;SF Pro Display&quot;,&quot;SF Pro Text&quot;,Helvetica,sans-serif;text-anchor:middle;" transform="matrix(1 0 0 1 559.711 322)">Ultralight</text>
  <text style="stroke:none;fill:black;font-family:-apple-system,&quot;SF Pro Display&quot;,&quot;SF Pro Text&quot;,Helvetica,sans-serif;text-anchor:middle;" transform="matrix(1 0 0 1 856.422 322)">Thin</text>
  <text style="stroke:none;fill:black;font-family:-apple-system,&quot;SF Pro Display&quot;,&quot;SF Pro Text&quot;,Helvetica,sans-serif;text-anchor:middle;" transform="matrix(1 0 0 1 1153.13 322)">Light</text>
  <text style="stroke:none;fill:black;font-family:-apple-system,&quot;SF Pro Display&quot;,&quot;SF Pro Text&quot;,Helvetica,sans-serif;text-anchor:middle;" transform="matrix(1 0 0 1 1449.84 322)">Regular</text>
  <text style="stroke:none;fill:black;font-family:-apple-system,&quot;SF Pro Display&quot;,&quot;SF Pro Text&quot;,Helvetica,sans-serif;text-anchor:middle;" transform="matrix(1 0 0 1 1746.56 322)">Medium</text>
  <text style="stroke:none;fill:black;font-family:-apple-system,&quot;SF Pro Display&quot;,&quot;SF Pro Text&quot;,Helvetica,sans-serif;text-anchor:middle;" transform="matrix(1 0 0 1 2043.27 322)">Semibold</text>
  <text style="stroke:none;fill:black;font-family:-apple-system,&quot;SF Pro Display&quot;,&quot;SF Pro Text&quot;,Helvetica,sans-serif;text-anchor:middle;" transform="matrix(1 0 0 1 2339.98 322)">Bold</text>
  <text style="stroke:none;fill:black;font-family:-apple-system,&quot;SF Pro Display&quot;,&quot;SF Pro Text&quot;,Helvetica,sans-serif;text-anchor:middle;" transform="matrix(1 0 0 1 2636.69 322)">Heavy</text>
  <text style="stroke:none;fill:black;font-family:-apple-system,&quot;SF Pro Display&quot;,&quot;SF Pro Text&quot;,Helvetica,sans-serif;text-anchor:middle;" transform="matrix(1 0 0 1 2933.4 322)">Black</text>
  <line id="" style="fill:none;stroke:black;opacity:1;stroke-width:0.5;" x1="263" x2="3036" y1="1903" y2="1903"/>
  <g id="" transform="matrix(1 0 0 1 263 1933)">
   <path d="M 9.24805 0.830078 C 13.5547 0.830078 17.1387 -2.74414 17.1387 -7.05078 C 17.1387 -11.3574 13.5449 -14.9316 9.23828 -14.9316 C 4.94141 -14.9316 1.36719 -11.3574 1.36719 -7.05078 C 1.36719 -2.74414 4.95117 0.830078 9.24805 0.830078 Z M 9.24805 -0.654297 C 5.70312 -0.654297 2.87109 -3.49609 2.87109 -7.05078 C 2.87109 -10.6055 5.69336 -13.4473 9.23828 -13.4473 C 12.793 -13.4473 15.6348 -10.6055 15.6445 -7.05078 C 15.6543 -3.49609 12.8027 -0.654297 9.24805 -0.654297 Z M 9.22852 -3.62305 C 9.69727 -3.62305 9.9707 -3.93555 9.9707 -4.45312 L 9.9707 -6.31836 L 12.002 -6.31836 C 12.5 -6.31836 12.832 -6.57227 12.832 -7.04102 C 12.832 -7.51953 12.5195 -7.7832 12.002 -7.7832 L 9.9707 -7.7832 L 9.9707 -9.81445 C 9.9707 -10.332 9.69727 -10.6543 9.22852 -10.6543 C 8.75977 -10.6543 8.50586 -10.3125 8.50586 -9.81445 L 8.50586 -7.7832 L 6.49414 -7.7832 C 5.97656 -7.7832 5.64453 -7.51953 5.64453 -7.04102 C 5.64453 -6.57227 5.99609 -6.31836 6.49414 -6.31836 L 8.50586 -6.31836 L 8.50586 -4.45312 C 8.50586 -3.95508 8.75977 -3.62305 9.22852 -3.62305 Z"/>
  </g>
  <g id="" transform="matrix(1 0 0 1 281.506 1933)">
   <path d="M 11.709 2.91016 C 17.1582 2.91016 21.6699 -1.61133 21.6699 -7.05078 C 21.6699 -12.5 17.1484 -17.0117 11.6992 -17.0117 C 6.25977 -17.0117 1.74805 -12.5 1.74805 -7.05078 C 1.74805 -1.61133 6.26953 2.91016 11.709 2.91016 Z M 11.709 1.25 C 7.09961 1.25 3.41797 -2.44141 3.41797 -7.05078 C 3.41797 -11.6602 7.08984 -15.3516 11.6992 -15.3516 C 16.3086 -15.3516 20 -11.6602 20.0098 -7.05078 C 20.0195 -2.44141 16.3184 1.25 11.709 1.25 Z M 11.6797 -2.66602 C 12.207 -2.66602 12.5098 -3.01758 12.5098 -3.59375 L 12.5098 -6.23047 L 15.3223 -6.23047 C 15.8691 -6.23047 16.25 -6.51367 16.25 -7.03125 C 16.25 -7.55859 15.8887 -7.86133 15.3223 -7.86133 L 12.5098 -7.86133 L 12.5098 -10.6836 C 12.5098 -11.25 12.207 -11.6113 11.6797 -11.6113 C 11.1621 -11.6113 10.8789 -11.2305 10.8789 -10.6836 L 10.8789 -7.86133 L 8.07617 -7.86133 C 7.50977 -7.86133 7.13867 -7.55859 7.13867 -7.03125 C 7.13867 -6.51367 7.5293 -6.23047 8.07617 -6.23047 L 10.8789 -6.23047 L 10.8789 -3.59375 C 10.8789 -3.03711 11.1621 -2.66602 11.6797 -2.66602 Z"/>
  </g>
  <g id="" transform="matrix(1 0 0 1 304.924 1933)">
   <path d="M 14.9707 5.66406 C 21.9336 5.66406 27.6953 -0.0976562 27.6953 -7.05078 C 27.6953 -14.0137 21.9238 -19.7754 14.9609 -19.7754 C 8.00781 -19.7754 2.25586 -14.0137 2.25586 -7.05078 C 2.25586 -0.0976562 8.01758 5.66406 14.9707 5.66406 Z M 14.9707 3.84766 C 8.93555 3.84766 4.08203 -1.01562 4.08203 -7.05078 C 4.08203 -13.0957 8.92578 -17.9492 14.9609 -17.9492 C 21.0059 -17.9492 25.8594 -13.0957 25.8691 -7.05078 C 25.8789 -1.01562 21.0156 3.84766 14.9707 3.84766 Z M 14.9414 -1.38672 C 15.5176 -1.38672 15.8594 -1.77734 15.8594 -2.38281 L 15.8594 -6.13281 L 19.7754 -6.13281 C 20.3711 -6.13281 20.7812 -6.46484 20.7812 -7.02148 C 20.7812 -7.59766 20.3906 -7.93945 19.7754 -7.93945 L 15.8594 -7.93945 L 15.8594 -11.8652 C 15.8594 -12.4805 15.5176 -12.8711 14.9414 -12.8711 C 14.375 -12.8711 14.0527 -12.4609 14.0527 -11.8652 L 14.0527 -7.93945 L 10.1465 -7.93945 C 9.53125 -7.93945 9.13086 -7.59766 9.13086 -7.02148 C 9.13086 -6.46484 9.55078 -6.13281 10.1465 -6.13281 L 14.0527 -6.13281 L 14.0527 -2.38281 C 14.0527 -1.79688 14.375 -1.38672 14.9414 -1.38672 Z"/>
  </g>
  <text style="stroke:none;fill:black;font-family:-apple-system,&quot;SF Pro Display&quot;,&quot;SF Pro Text&quot;,Helvetica,sans-serif;font-weight:bold;" transform="matrix(1 0 0 1 263 1953)">Design Variations</text>
  <text style="stroke:none;fill:black;font-family:-apple-system,&quot;SF Pro Display&quot;,&quot;SF Pro Text&quot;,Helvetica,sans-serif;" transform="matrix(1 0 0 1 263 1971)">Symbols are supported in up to nine weights and three scales.</text>
  <text style="stroke:none;fill:black;font-family:-apple-system,&quot;SF Pro Display&quot;,&quot;SF Pro Text&quot;,Helvetica,sans-serif;" transform="matrix(1 0 0 1 263 1989)">For optimal layout with text and other symbols, vertically align</text>
  <text style="stroke:none;fill:black;font-family:-apple-system,&quot;SF Pro Display&quot;,&quot;SF Pro Text&quot;,Helvetica,sans-serif;" transform="matrix(1 0 0 1 263 2007)">symbols with the adjacent text.</text>
  <line id="" style="fill:none;stroke:#00AEEF;stroke-width:0.5;opacity:1.0;" x1="776" x2="776" y1="1919" y2="1933"/>
  <g id="" transform="matrix(1 0 0 1 776 1933)">
   <path d="M 3.31055 0.126953 C 3.82812 0.126953 4.08203 -0.0683594 4.26758 -0.605469 L 5.52734 -4.0625 L 11.2891 -4.0625 L 12.5488 -0.605469 C 12.7344 -0.0683594 12.9883 0.126953 13.4961 0.126953 C 14.0137 0.126953 14.3457 -0.185547 14.3457 -0.673828 C 14.3457 -0.839844 14.3164 -0.986328 14.2383 -1.20117 L 9.6582 -13.3887 C 9.43359 -13.9941 9.0332 -14.2871 8.4082 -14.2871 C 7.80273 -14.2871 7.39258 -13.9941 7.17773 -13.3984 L 2.59766 -1.19141 C 2.51953 -0.976562 2.49023 -0.830078 2.49023 -0.664062 C 2.49023 -0.175781 2.80273 0.126953 3.31055 0.126953 Z M 6.00586 -5.53711 L 8.37891 -12.1094 L 8.42773 -12.1094 L 10.8008 -5.53711 Z"/>
  </g>
  <line id="" style="fill:none;stroke:#00AEEF;stroke-width:0.5;opacity:1.0;" x1="792.836" x2="792.836" y1="1919" y2="1933"/>
  <text style="stroke:none;fill:black;font-family:-apple-system,&quot;SF Pro Display&quot;,&quot;SF Pro Text&quot;,Helvetica,sans-serif;font-weight:bold;" transform="matrix(1 0 0 1 776 1953)">Margins</text>
  <text style="stroke:none;fill:black;font-family:-apple-system,&quot;SF Pro Display&quot;,&quot;SF Pro Text&quot;,Helvetica,sans-serif;" transform="matrix(1 0 0 1 776 1971)">Leading and trailing margins on the left and right side of each symbol</text>
  <text style="stroke:none;fill:black;font-family:-apple-system,&quot;SF Pro Display&quot;,&quot;SF Pro Text&quot;,Helvetica,sans-serif;" transform="matrix(1 0 0 1 776 1989)">can be adjusted by modifying the x-location of the margin guidelines.</text>
  <text style="stroke:none;fill:black;font-family:-apple-system,&quot;SF Pro Display&quot;,&quot;SF Pro Text&quot;,Helvetica,sans-serif;" transform="matrix(1 0 0 1 776 2007)">Modifications are automatically applied proportionally to all</text>
  <text style="stroke:none;fill:black;font-family:-apple-system,&quot;SF Pro Display&quot;,&quot;SF Pro Text&quot;,Helvetica,sans-serif;" transform="matrix(1 0 0 1 776 2025)">scales and weights.</text>
  <g id="" transform="matrix(1 0 0 1 1289 1933)">
   <path d="M 2.8418 1.86523 L 4.54102 3.57422 C 5.40039 4.44336 6.38672 4.38477 7.31445 3.35938 L 17.4902 -7.85156 C 17.7539 -7.76367 18.0273 -7.7832 18.3398 -7.8418 L 19.4043 -8.03711 L 20.0684 -7.36328 L 20.0293 -6.80664 C 19.9902 -6.30859 20.1172 -5.92773 20.6055 -5.44922 L 21.3672 -4.70703 C 21.8457 -4.22852 22.4609 -4.19922 22.9297 -4.66797 L 25.8398 -7.58789 C 26.3086 -8.05664 26.2891 -8.65234 25.8105 -9.13086 L 25.0391 -9.89258 C 24.5605 -10.3711 24.1895 -10.5273 23.7109 -10.4883 L 23.1348 -10.4395 L 22.4902 -11.0742 L 22.7344 -12.1973 C 22.8613 -12.7637 22.7051 -13.2031 22.1191 -13.7891 L 19.9219 -15.9766 C 16.582 -19.2969 12.1484 -19.2188 9.25781 -16.3281 C 8.83789 -15.918 8.80859 -15.3418 9.04297 -14.9512 C 9.27734 -14.5898 9.73633 -14.3555 10.3809 -14.5215 C 11.8457 -14.8633 13.3691 -14.9219 14.7949 -13.9844 L 14.209 -12.5293 C 14.0137 -12.0508 13.9844 -11.6504 14.1113 -11.2891 L 3.04688 -0.898438 C 2.06055 0.0195312 1.98242 0.996094 2.8418 1.86523 Z M 10.752 -15.957 C 13.1836 -17.7344 16.4746 -17.4316 18.7012 -15.2051 L 21.1328 -12.793 C 21.3672 -12.5586 21.4062 -12.373 21.3379 -12.0312 L 21.0156 -10.5469 L 22.5195 -9.0625 L 23.5059 -9.12109 C 23.7598 -9.13086 23.8379 -9.11133 24.0332 -8.91602 L 24.6094 -8.33984 L 22.168 -5.89844 L 21.5918 -6.47461 C 21.3965 -6.66992 21.3672 -6.74805 21.377 -7.01172 L 21.4453 -7.98828 L 19.9512 -9.47266 L 18.4277 -9.21875 C 18.1055 -9.15039 17.959 -9.17969 17.7148 -9.41406 L 15.7129 -11.416 C 15.459 -11.6504 15.4297 -11.8164 15.5859 -12.1875 L 16.4648 -14.2773 C 14.9023 -15.7324 12.8711 -16.3574 10.8398 -15.7617 C 10.6836 -15.7227 10.625 -15.8496 10.752 -15.957 Z M 5.27344 2.30469 L 4.10156 1.14258 C 3.63281 0.683594 3.74023 0.341797 4.14062 -0.0195312 L 14.9512 -10.1953 L 16.416 -8.71094 L 6.42578 2.27539 C 6.07422 2.67578 5.74219 2.77344 5.27344 2.30469 Z"/>
  </g>
  <text style="stroke:none;fill:black;font-family:-apple-system,&quot;SF Pro Display&quot;,&quot;SF Pro Text&quot;,Helvetica,sans-serif;font-weight:bold;" transform="matrix(1 0 0 1 1289 1953)">Exporting</text>
  <text style="stroke:none;fill:black;font-family:-apple-system,&quot;SF Pro Display&quot;,&quot;SF Pro Text&quot;,Helvetica,sans-serif;" transform="matrix(1 0 0 1 1289 1971)">Symbols should be outlined when exporting to ensure the</text>
  <text style="stroke:none;fill:black;font-family:-apple-system,&quot;SF Pro Display&quot;,&quot;SF Pro Text&quot;,Helvetica,sans-serif;" transform="matrix(1 0 0 1 1289 1989)">design is preserved when submitting to Xcode.</text>
  <text id="template-version" style="stroke:none;fill:black;font-family:-apple-system,&quot;SF Pro Display&quot;,&quot;SF Pro Text&quot;,Helvetica,sans-serif;text-anchor:end;" transform="matrix(1 0 0 1 3036 1933)">Template v.2.0</text>
  <text style="stroke:none;fill:black;font-family:-apple-system,&quot;SF Pro Display&quot;,&quot;SF Pro Text&quot;,Helvetica,sans-serif;text-anchor:end;" transform="matrix(1 0 0 1 3036 1951)">Requires Xcode 12 or greater</text>
  <text style="stroke:none;fill:black;font-family:-apple-system,&quot;SF Pro Display&quot;,&quot;SF Pro Text&quot;,Helvetica,sans-serif;text-anchor:end;" transform="matrix(1 0 0 1 3036 1969)">Generated from command</text>
  <text style="stroke:none;fill:black;font-family:-apple-system,&quot;SF Pro Display&quot;,&quot;SF Pro Text&quot;,Helvetica,sans-serif;text-anchor:end;" transform="matrix(1 0 0 1 3036 1987)">Typeset at 100 points</text>
  <text style="stroke:none;fill:black;font-family:-apple-system,&quot;SF Pro Display&quot;,&quot;SF Pro Text&quot;,Helvetica,sans-serif;" transform="matrix(1 0 0 1 263 726)">Small</text>
  <text style="stroke:none;fill:black;font-family:-apple-system,&quot;SF Pro Display&quot;,&quot;SF Pro Text&quot;,Helvetica,sans-serif;" transform="matrix(1 0 0 1 263 1156)">Medium</text>
  <text style="stroke:none;fill:black;font-family:-apple-system,&quot;SF Pro Display&quot;,&quot;SF Pro Text&quot;,Helvetica,sans-serif;" transform="matrix(1 0 0 1 263 1586)">Large</text>
 </g>
 <g id="Guides">
  <g id="H-reference" style="fill:#27AAE1;stroke:none;" transform="matrix(1 0 0 1 339 696)">
   <path d="M 0.976562 0 L 3.66211 0 L 12.9883 -24.4629 L 45.7031 -24.4629 L 55.0781 0 L 57.7148 0 L 30.6152 -70.459 L 28.125 -70.459 Z M 29.2969 -67.1387 L 29.3945 -67.1387 L 44.873 -26.709 L 13.8672 -26.709 Z"/>
  </g>
  <line id="Baseline-S" style="fill:none;stroke:#27AAE1;opacity:1;stroke-width:0.5;" x1="263" x2="3036" y1="696" y2="696"/>
  <line id="Capline-S" style="fill:none;stroke:#27AAE1;opacity:1;stroke-width:0.5;" x1="263" x2="3036" y1="625.541" y2="625.541"/>
  <g id="H-reference" style="fill:#27AAE1;stroke:none;" transform="matrix(1 0 0 1 339 1126)">
   <path d="M 0.976562 0 L 3.66211 0 L 12.9883 -24.4629 L 45.7031 -24.4629 L 55.0781 0 L 57.7148 0 L 30.6152 -70.459 L 28.125 -70.459 Z M 29.2969 -67.1387 L 29.3945 -67.1387 L 44.873 -26.709 L 13.8672 -26.709 Z"/>
  </g>
  <line id="Baseline-M" style="fill:none;stroke:#27AAE1;opacity:1;stroke-width:0.5;" x1="263" x2="3036" y1="1126" y2="1126"/>
  <line id="Capline-M" style="fill:none;stroke:#27AAE1;opacity:1;stroke-width:0.5;" x1="263" x2="3036" y1="1055.54" y2="1055.54"/>
  <g id="H-reference" style="fill:#27AAE1;stroke:none;" transform="matrix(1 0 0 1 339 1556)">
   <path d="M 0.976562 0 L 3.66211 0 L 12.9883 -24.4629 L 45.7031 -24.4629 L 55.0781 0 L 57.7148 0 L 30.6152 -70.459 L 28.125 -70.459 Z M 29.2969 -67.1387 L 29.3945 -67.1387 L 44.873 -26.709 L 13.8672 -26.709 Z"/>
  </g>
  <line id="Baseline-L" style="fill:none;stroke:#27AAE1;opacity:1;stroke-width:0.5;" x1="263" x2="3036" y1="1556" y2="1556"/>
  <line id="Capline-L" style="fill:none;stroke:#27AAE1;opacity:1;stroke-width:0.5;" x1="263" x2="3036" y1="1485.54" y2="1485.54"/>
  <line id="left-margin" style="fill:none;stroke:#00AEEF;stroke-width:0.5;opacity:1.0;" x1="1391.28" x2="1391.28" y1="1030.79" y2="1150.12"/>
  <line id="right-margin" style="fill:none;stroke:#00AEEF;stroke-width:0.5;opacity:1.0;" x1="1508.41" x2="1508.41" y1="1030.79" y2="1150.12"/>
 </g>
 <g id="Symbols">
  <g id="Black-L" transform="matrix(1 0 0 1 2855.57 1556)">
   <path d="M 50.9766 -44.2383 L 50.9766 -26.0742 L 42.3828 -25.9766 C 27.832 -25.8789 16.0645 -14.4043 16.0645 0.146484 C 16.0645 14.5996 27.7832 26.5137 42.4316 26.5137 C 56.8359 26.5137 68.7012 14.5508 68.7012 0.146484 L 68.7012 -8.1543 L 86.9629 -8.1543 L 86.9629 0.146484 C 86.9629 14.5508 98.7793 26.5137 113.232 26.5137 C 127.881 26.5137 139.6 14.5996 139.6 0.146484 C 139.6 -14.4043 127.832 -25.8789 113.281 -25.9766 L 104.688 -26.0742 L 104.688 -44.2383 L 113.281 -44.2871 C 127.832 -44.3848 139.6 -55.9082 139.6 -70.459 C 139.6 -84.9121 127.881 -96.7773 113.232 -96.7773 C 98.7793 -96.7773 86.9629 -84.8145 86.9629 -70.459 L 86.9629 -62.1094 L 68.7012 -62.1094 L 68.7012 -70.459 C 68.7012 -84.8145 56.8359 -96.7773 42.4316 -96.7773 C 27.7832 -96.7773 16.0645 -84.9121 16.0645 -70.459 C 16.0645 -55.9082 27.832 -44.3848 42.3828 -44.2871 Z M 43.0664 -61.9629 C 37.9395 -61.9629 34.082 -65.7227 34.082 -70.4102 C 34.082 -75.0488 37.793 -78.7598 42.4316 -78.7598 C 46.9727 -78.7598 50.8301 -74.9512 50.8301 -69.7266 L 50.8301 -61.9629 Z M 112.598 -61.9629 L 104.834 -61.9629 L 104.834 -69.7266 C 104.834 -74.9512 108.691 -78.7598 113.232 -78.7598 C 117.871 -78.7598 121.582 -75.0488 121.582 -70.4102 C 121.582 -65.7227 117.725 -61.9629 112.598 -61.9629 Z M 68.75 -26.0254 L 68.75 -44.2871 L 86.9141 -44.2871 L 86.9141 -26.0254 Z M 43.0664 -8.34961 L 50.8301 -8.34961 L 50.8301 -0.537109 C 50.8301 4.63867 46.9727 8.44727 42.4316 8.44727 C 37.793 8.44727 34.082 4.73633 34.082 0.0976562 C 34.082 -4.58984 37.9395 -8.34961 43.0664 -8.34961 Z M 112.598 -8.34961 C 117.725 -8.34961 121.582 -4.58984 121.582 0.0976562 C 121.582 4.73633 117.871 8.44727 113.232 8.44727 C 108.691 8.44727 104.834 4.63867 104.834 -0.537109 L 104.834 -8.34961 Z"/>
  </g>
  <g id="Heavy-L" transform="matrix(1 0 0 1 2559.42 1556)">
   <path d="M 51.123 -45.8008 L 51.123 -24.5605 L 41.3574 -24.5117 C 27.3926 -24.4141 16.0645 -13.3789 16.0645 0.634766 C 16.0645 14.5508 27.3438 25.9766 41.4062 25.9766 C 55.2734 25.9766 66.6504 14.502 66.6504 0.634766 L 66.6504 -8.93555 L 87.8906 -8.93555 L 87.8906 0.634766 C 87.8906 14.502 99.2676 25.9766 113.135 25.9766 C 127.197 25.9766 138.477 14.5508 138.477 0.634766 C 138.477 -13.3789 127.148 -24.4141 113.184 -24.5117 L 103.418 -24.5605 L 103.418 -45.8008 L 113.184 -45.8496 C 127.148 -45.8984 138.477 -56.9824 138.477 -70.9473 C 138.477 -84.8633 127.197 -96.2891 113.135 -96.2891 C 99.2676 -96.2891 87.8906 -84.8145 87.8906 -70.9473 L 87.8906 -61.4258 L 66.6504 -61.4258 L 66.6504 -70.9473 C 66.6504 -84.8145 55.2734 -96.2891 41.4062 -96.2891 C 27.3438 -96.2891 16.0645 -84.8633 16.0645 -70.9473 C 16.0645 -56.9824 27.3926 -45.8984 41.3574 -45.8496 Z M 41.8945 -61.2793 C 36.1816 -61.2793 31.8359 -65.5762 31.8359 -70.9473 C 31.8359 -76.2695 36.084 -80.5176 41.4062 -80.5176 C 46.582 -80.5176 51.0254 -76.1719 51.0254 -70.4102 L 51.0254 -61.2793 Z M 112.646 -61.2793 L 103.516 -61.2793 L 103.516 -70.4102 C 103.516 -76.1719 107.959 -80.5176 113.135 -80.5176 C 118.457 -80.5176 122.754 -76.2695 122.754 -70.9473 C 122.754 -65.5762 118.359 -61.2793 112.646 -61.2793 Z M 66.6992 -24.5117 L 66.6992 -45.8496 L 87.8418 -45.8496 L 87.8418 -24.5117 Z M 41.8945 -9.08203 L 51.0254 -9.08203 L 51.0254 0.0488281 C 51.0254 5.81055 46.582 10.1562 41.4062 10.1562 C 36.084 10.1562 31.8359 5.9082 31.8359 0.585938 C 31.8359 -4.78516 36.1816 -9.08203 41.8945 -9.08203 Z M 112.646 -9.08203 C 118.359 -9.08203 122.754 -4.78516 122.754 0.585938 C 122.754 5.9082 118.457 10.1562 113.135 10.1562 C 107.959 10.1562 103.516 5.81055 103.516 0.0488281 L 103.516 -9.08203 Z"/>
  </g>
  <g id="Bold-L" transform="matrix(1 0 0 1 2263.32 1556)">
   <path d="M 51.2695 -47.5098 L 51.2695 -22.8516 L 40.2344 -22.8516 C 26.9043 -22.7539 16.0645 -12.207 16.0645 1.17188 C 16.0645 14.4531 26.8555 25.3418 40.2344 25.3418 C 53.5156 25.3418 64.3555 14.4531 64.3555 1.17188 L 64.3555 -9.76562 L 88.9648 -9.76562 L 88.9648 1.17188 C 88.9648 14.4531 99.8047 25.3418 113.086 25.3418 C 126.465 25.3418 137.256 14.4531 137.256 1.17188 C 137.256 -12.207 126.416 -22.7539 113.086 -22.8516 L 102.051 -22.8516 L 102.051 -47.5098 L 113.086 -47.5586 C 126.416 -47.6074 137.256 -58.1543 137.256 -71.5332 C 137.256 -84.8633 126.465 -95.752 113.086 -95.752 C 99.8047 -95.752 88.9648 -84.8145 88.9648 -71.5332 L 88.9648 -60.5957 L 64.3555 -60.5957 L 64.3555 -71.5332 C 64.3555 -84.8145 53.5156 -95.752 40.2344 -95.752 C 26.8555 -95.752 16.0645 -84.8633 16.0645 -71.5332 C 16.0645 -58.1543 26.9043 -47.6074 40.2344 -47.5586 Z M 40.5762 -60.498 C 34.2773 -60.498 29.2969 -65.4297 29.2969 -71.5332 C 29.2969 -77.5879 34.2285 -82.5195 40.2344 -82.5195 C 46.1914 -82.5195 51.2207 -77.5391 51.2207 -71.1914 L 51.2207 -60.498 Z M 112.744 -60.498 L 102.1 -60.498 L 102.1 -71.1914 C 102.1 -77.5391 107.129 -82.5195 113.086 -82.5195 C 119.092 -82.5195 124.023 -77.5879 124.023 -71.5332 C 124.023 -65.4297 119.043 -60.498 112.744 -60.498 Z M 64.4043 -22.8027 L 64.4043 -47.6074 L 88.916 -47.6074 L 88.916 -22.8027 Z M 40.5762 -9.96094 L 51.2207 -9.96094 L 51.2207 0.78125 C 51.2207 7.12891 46.1914 12.1094 40.2344 12.1094 C 34.2285 12.1094 29.2969 7.17773 29.2969 1.07422 C 29.2969 -4.98047 34.2773 -9.96094 40.5762 -9.96094 Z M 112.744 -9.96094 C 119.043 -9.96094 124.023 -4.98047 124.023 1.07422 C 124.023 7.17773 119.092 12.1094 113.086 12.1094 C 107.129 12.1094 102.1 7.12891 102.1 0.78125 L 102.1 -9.96094 Z"/>
  </g>
  <g id="Semibold-L" transform="matrix(1 0 0 1 1967.02 1556)">
   <path d="M 51.416 -48.7305 L 51.416 -21.6797 L 39.4043 -21.6797 C 26.5625 -21.6309 16.0645 -11.4258 16.0645 1.51367 C 16.0645 14.4043 26.5137 24.9512 39.4531 24.9512 C 52.2949 24.9512 62.793 14.4043 62.793 1.51367 L 62.793 -10.3516 L 89.6973 -10.3516 L 89.6973 1.51367 C 89.6973 14.4043 100.195 24.9512 113.037 24.9512 C 125.928 24.9512 136.426 14.4043 136.426 1.51367 C 136.426 -11.4258 125.928 -21.6309 113.037 -21.6797 L 101.074 -21.6797 L 101.074 -48.7305 L 113.037 -48.7305 C 125.928 -48.7793 136.426 -58.9844 136.426 -71.9238 C 136.426 -84.8633 125.928 -95.3613 113.037 -95.3613 C 100.195 -95.3613 89.6973 -84.8145 89.6973 -71.9238 L 89.6973 -60.0586 L 62.793 -60.0586 L 62.793 -71.9238 C 62.793 -84.8145 52.2949 -95.3613 39.4531 -95.3613 C 26.5137 -95.3613 16.0645 -84.8633 16.0645 -71.9238 C 16.0645 -58.9844 26.5625 -48.7793 39.4043 -48.7305 Z M 39.6484 -59.9121 C 32.959 -59.9121 27.5391 -65.332 27.5391 -71.9238 C 27.5391 -78.5156 32.9102 -83.8867 39.4531 -83.8867 C 45.9473 -83.8867 51.3672 -78.4668 51.3672 -71.7285 L 51.3672 -59.9121 Z M 112.842 -59.9121 L 101.074 -59.9121 L 101.074 -71.7285 C 101.074 -78.4668 106.543 -83.8867 113.037 -83.8867 C 119.58 -83.8867 124.951 -78.5156 124.951 -71.9238 C 124.951 -65.332 119.531 -59.9121 112.842 -59.9121 Z M 62.793 -21.6309 L 62.793 -48.8281 L 89.6484 -48.8281 L 89.6484 -21.6309 Z M 39.6484 -10.5469 L 51.3672 -10.5469 L 51.3672 1.26953 C 51.3672 8.00781 45.9473 13.4277 39.4531 13.4277 C 32.9102 13.4277 27.5391 8.05664 27.5391 1.46484 C 27.5391 -5.12695 32.959 -10.5469 39.6484 -10.5469 Z M 112.842 -10.5469 C 119.531 -10.5469 124.951 -5.12695 124.951 1.46484 C 124.951 8.05664 119.58 13.4277 113.037 13.4277 C 106.543 13.4277 101.074 8.00781 101.074 1.26953 L 101.074 -10.5469 Z"/>
  </g>
  <g id="Medium-L" transform="matrix(1 0 0 1 1670.65 1556)">
   <path d="M 51.5137 -49.6582 L 51.5137 -20.8008 L 38.8184 -20.8008 C 26.2695 -20.8008 16.0645 -10.8398 16.0645 1.80664 C 16.0645 14.4043 26.2695 24.6094 38.8184 24.6094 C 51.3672 24.6094 61.5723 14.3555 61.5723 1.80664 L 61.5723 -10.8398 L 90.2344 -10.8398 L 90.2344 1.80664 C 90.2344 14.3555 100.488 24.6094 112.988 24.6094 C 125.537 24.6094 135.742 14.4043 135.742 1.80664 C 135.742 -10.8398 125.537 -20.8008 112.988 -20.8008 L 100.342 -20.8008 L 100.342 -49.6582 L 112.988 -49.6582 C 125.537 -49.6582 135.742 -59.6191 135.742 -72.2656 C 135.742 -84.8633 125.537 -95.0684 112.988 -95.0684 C 100.488 -95.0684 90.2344 -84.8145 90.2344 -72.2656 L 90.2344 -59.6191 L 61.5723 -59.6191 L 61.5723 -72.2656 C 61.5723 -84.8145 51.3672 -95.0684 38.8184 -95.0684 C 26.2695 -95.0684 16.0645 -84.8633 16.0645 -72.2656 C 16.0645 -59.6191 26.2695 -49.6582 38.8184 -49.6582 Z M 38.9648 -59.5215 C 31.9336 -59.5215 26.2207 -65.2344 26.2207 -72.2168 C 26.2207 -79.248 31.9336 -84.9609 38.8184 -84.9609 C 45.752 -84.9609 51.4648 -79.1992 51.4648 -72.1191 L 51.4648 -59.5215 Z M 112.891 -59.5215 L 100.342 -59.5215 L 100.342 -72.1191 C 100.342 -79.1992 106.104 -84.9609 112.988 -84.9609 C 119.922 -84.9609 125.635 -79.248 125.635 -72.2168 C 125.635 -65.2344 119.873 -59.5215 112.891 -59.5215 Z M 61.6211 -20.7031 L 61.6211 -49.707 L 90.2344 -49.707 L 90.2344 -20.7031 Z M 38.9648 -10.9863 L 51.4648 -10.9863 L 51.4648 1.61133 C 51.4648 8.69141 45.752 14.4531 38.8184 14.4531 C 31.9336 14.4531 26.2207 8.74023 26.2207 1.75781 C 26.2207 -5.22461 31.9336 -10.9863 38.9648 -10.9863 Z M 112.891 -10.9863 C 119.873 -10.9863 125.635 -5.22461 125.635 1.75781 C 125.635 8.74023 119.922 14.4531 112.988 14.4531 C 106.104 14.4531 100.342 8.69141 100.342 1.61133 L 100.342 -10.9863 Z"/>
  </g>
  <g id="Regular-L" transform="matrix(1 0 0 1 1374.36 1556)">
   <path d="M 51.6113 -50.8301 L 51.6113 -19.6777 L 38.0371 -19.6777 C 25.9277 -19.6777 16.0645 -10.0098 16.0645 2.14844 C 16.0645 14.3555 25.9277 24.2188 38.0371 24.2188 C 50.1465 24.2188 60.0098 14.3555 60.0098 2.14844 L 60.0098 -11.4258 L 90.9668 -11.4258 L 90.9668 2.14844 C 90.9668 14.3555 100.83 24.2188 112.939 24.2188 C 125.049 24.2188 134.912 14.3555 134.912 2.14844 C 134.912 -10.0098 125.049 -19.6777 112.939 -19.6777 L 99.3652 -19.6777 L 99.3652 -50.8301 L 112.939 -50.8301 C 125.049 -50.8301 134.912 -60.4492 134.912 -72.6562 C 134.912 -84.8145 125.049 -94.7266 112.939 -94.7266 C 100.83 -94.7266 90.9668 -84.8145 90.9668 -72.6562 L 90.9668 -59.082 L 60.0098 -59.082 L 60.0098 -72.6562 C 60.0098 -84.8145 50.1465 -94.7266 38.0371 -94.7266 C 25.9277 -94.7266 16.0645 -84.8145 16.0645 -72.6562 C 16.0645 -60.4492 25.9277 -50.8301 38.0371 -50.8301 Z M 38.0371 -58.9844 C 30.6152 -58.9844 24.4629 -65.1367 24.4629 -72.6562 C 24.4629 -80.127 30.6152 -86.2793 38.0371 -86.2793 C 45.459 -86.2793 51.6113 -80.127 51.6113 -72.6562 L 51.6113 -58.9844 Z M 112.939 -58.9844 L 99.3652 -58.9844 L 99.3652 -72.6562 C 99.3652 -80.127 105.518 -86.2793 112.939 -86.2793 C 120.361 -86.2793 126.514 -80.127 126.514 -72.6562 C 126.514 -65.1367 120.361 -58.9844 112.939 -58.9844 Z M 60.0098 -19.5801 L 60.0098 -50.9277 L 90.9668 -50.9277 L 90.9668 -19.5801 Z M 38.0371 -11.5723 L 51.6113 -11.5723 L 51.6113 2.09961 C 51.6113 9.61914 45.459 15.7715 38.0371 15.7715 C 30.6152 15.7715 24.4629 9.61914 24.4629 2.09961 C 24.4629 -5.41992 30.6152 -11.5723 38.0371 -11.5723 Z M 112.939 -11.5723 C 120.361 -11.5723 126.514 -5.41992 126.514 2.09961 C 126.514 9.61914 120.361 15.7715 112.939 15.7715 C 105.518 15.7715 99.3652 9.61914 99.3652 2.09961 L 99.3652 -11.5723 Z"/>
  </g>
  <g id="Light-L" transform="matrix(1 0 0 1 1077.77 1556)">
   <path d="M 52.1484 -52.0508 L 52.1484 -18.457 L 37.3535 -18.457 C 25.6348 -18.457 16.0645 -9.0332 16.0645 2.73438 C 16.0645 14.502 25.6348 24.1211 37.3535 24.1211 C 49.0234 24.1211 58.6426 14.502 58.6426 2.73438 L 58.6426 -12.1094 L 92.1387 -12.1094 L 92.1387 2.73438 C 92.1387 14.502 101.709 24.1211 113.428 24.1211 C 125.098 24.1211 134.668 14.502 134.668 2.73438 C 134.668 -9.0332 125.098 -18.457 113.428 -18.457 L 98.584 -18.457 L 98.584 -52.0508 L 113.428 -52.0508 C 125.098 -52.0508 134.668 -61.4746 134.668 -73.2422 C 134.668 -85.0098 125.098 -94.6289 113.428 -94.6289 C 101.709 -94.6289 92.1387 -85.0098 92.1387 -73.2422 L 92.1387 -58.3984 L 58.6426 -58.3984 L 58.6426 -73.2422 C 58.6426 -85.0098 49.0234 -94.6289 37.3535 -94.6289 C 25.6348 -94.6289 16.0645 -85.0098 16.0645 -73.2422 C 16.0645 -61.4746 25.6348 -52.0508 37.3535 -52.0508 Z M 37.3535 -58.3496 C 29.248 -58.3496 22.5098 -65.0879 22.5098 -73.2422 C 22.5098 -81.4453 29.248 -88.1348 37.3535 -88.1348 C 45.459 -88.1348 52.1484 -81.4453 52.1484 -73.2422 L 52.1484 -58.3496 Z M 113.428 -58.3496 L 98.584 -58.3496 L 98.584 -73.2422 C 98.584 -81.4453 105.322 -88.1348 113.428 -88.1348 C 121.484 -88.1348 128.223 -81.4453 128.223 -73.2422 C 128.223 -65.0879 121.484 -58.3496 113.428 -58.3496 Z M 58.6426 -18.4082 L 58.6426 -52.0996 L 92.1387 -52.0996 L 92.1387 -18.4082 Z M 37.3535 -12.207 L 52.1484 -12.207 L 52.1484 2.73438 C 52.1484 10.8887 45.459 17.627 37.3535 17.627 C 29.248 17.627 22.5098 10.8887 22.5098 2.73438 C 22.5098 -5.46875 29.248 -12.207 37.3535 -12.207 Z M 113.428 -12.207 C 121.484 -12.207 128.223 -5.46875 128.223 2.73438 C 128.223 10.8887 121.484 17.627 113.428 17.627 C 105.322 17.627 98.584 10.8887 98.584 2.73438 L 98.584 -12.207 Z"/>
  </g>
  <g id="Thin-L" transform="matrix(1 0 0 1 781.203 1556)">
   <path d="M 52.8809 -53.6621 L 52.8809 -16.8945 L 36.4258 -16.8945 C 25.2441 -16.8945 16.0645 -7.71484 16.0645 3.51562 C 16.0645 14.7461 25.2441 23.9746 36.4258 23.9746 C 47.5586 23.9746 56.7871 14.7461 56.7871 3.51562 L 56.7871 -12.9883 L 93.6523 -12.9883 L 93.6523 3.51562 C 93.6523 14.7461 102.832 23.9746 114.014 23.9746 C 125.195 23.9746 134.375 14.7461 134.375 3.51562 C 134.375 -7.71484 125.195 -16.8945 114.014 -16.8945 L 97.5586 -16.8945 L 97.5586 -53.6621 L 114.014 -53.6621 C 125.195 -53.6621 134.375 -62.8418 134.375 -74.0723 C 134.375 -85.3027 125.195 -94.4824 114.014 -94.4824 C 102.832 -94.4824 93.6523 -85.3027 93.6523 -74.0723 L 93.6523 -57.5195 L 56.7871 -57.5195 L 56.7871 -74.0723 C 56.7871 -85.3027 47.5586 -94.4824 36.4258 -94.4824 C 25.2441 -94.4824 16.0645 -85.3027 16.0645 -74.0723 C 16.0645 -62.8418 25.2441 -53.6621 36.4258 -53.6621 Z M 36.4258 -57.5195 C 27.3926 -57.5195 19.9707 -64.9902 19.9707 -74.0723 C 19.9707 -83.1543 27.3926 -90.5762 36.4258 -90.5762 C 45.4102 -90.5762 52.8809 -83.1543 52.8809 -74.0723 L 52.8809 -57.5195 Z M 114.014 -57.5195 L 97.5586 -57.5195 L 97.5586 -74.0723 C 97.5586 -83.1543 105.029 -90.5762 114.014 -90.5762 C 123.047 -90.5762 130.469 -83.1543 130.469 -74.0723 C 130.469 -64.9902 123.047 -57.5195 114.014 -57.5195 Z M 56.7871 -16.8457 L 56.7871 -53.6621 L 93.6523 -53.6621 L 93.6523 -16.8457 Z M 36.4258 -13.0371 L 52.8809 -13.0371 L 52.8809 3.51562 C 52.8809 12.5977 45.4102 20.0684 36.4258 20.0684 C 27.3926 20.0684 19.9707 12.5977 19.9707 3.51562 C 19.9707 -5.56641 27.3926 -13.0371 36.4258 -13.0371 Z M 114.014 -13.0371 C 123.047 -13.0371 130.469 -5.56641 130.469 3.51562 C 130.469 12.5977 123.047 20.0684 114.014 20.0684 C 105.029 20.0684 97.5586 12.5977 97.5586 3.51562 L 97.5586 -13.0371 Z"/>
  </g>
  <g id="Ultralight-L" transform="matrix(1 0 0 1 484.589 1556)">
   <path d="M 53.2227 -54.4922 L 53.2227 -16.0645 L 35.9375 -16.0645 C 25.0488 -16.0645 16.0645 -7.03125 16.0645 3.90625 C 16.0645 14.8926 25.0488 23.877 35.9375 23.877 C 46.8262 23.877 55.8105 14.8926 55.8105 3.90625 L 55.8105 -13.4766 L 94.4336 -13.4766 L 94.4336 3.90625 C 94.4336 14.8926 103.467 23.877 114.307 23.877 C 125.195 23.877 134.18 14.8926 134.18 3.90625 C 134.18 -7.03125 125.195 -16.0645 114.307 -16.0645 L 97.0215 -16.0645 L 97.0215 -54.4922 L 114.307 -54.4922 C 125.195 -54.4922 134.18 -63.5254 134.18 -74.4629 C 134.18 -85.4492 125.195 -94.4336 114.307 -94.4336 C 103.467 -94.4336 94.4336 -85.4492 94.4336 -74.4629 L 94.4336 -57.0801 L 55.8105 -57.0801 L 55.8105 -74.4629 C 55.8105 -85.4492 46.8262 -94.4336 35.9375 -94.4336 C 25.0488 -94.4336 16.0645 -85.4492 16.0645 -74.4629 C 16.0645 -63.5254 25.0488 -54.4922 35.9375 -54.4922 Z M 35.9375 -57.0801 C 26.4648 -57.0801 18.6523 -64.9414 18.6523 -74.4629 C 18.6523 -84.0332 26.4648 -91.8457 35.9375 -91.8457 C 45.4102 -91.8457 53.2227 -84.0332 53.2227 -74.4629 L 53.2227 -57.0801 Z M 114.307 -57.0801 L 97.0215 -57.0801 L 97.0215 -74.4629 C 97.0215 -84.0332 104.834 -91.8457 114.307 -91.8457 C 123.779 -91.8457 131.641 -84.0332 131.641 -74.4629 C 131.641 -64.9414 123.779 -57.0801 114.307 -57.0801 Z M 55.8105 -16.0645 L 55.8105 -54.4922 L 94.4336 -54.4922 L 94.4336 -16.0645 Z M 35.9375 -13.4277 L 53.2227 -13.4277 L 53.2227 3.95508 C 53.2227 13.4766 45.4102 21.2891 35.9375 21.2891 C 26.4648 21.2891 18.6523 13.4766 18.6523 3.95508 C 18.6523 -5.61523 26.4648 -13.4277 35.9375 -13.4277 Z M 114.307 -13.4277 C 123.779 -13.4277 131.641 -5.61523 131.641 3.95508 C 131.641 13.4766 123.779 21.2891 114.307 21.2891 C 104.834 21.2891 97.0215 13.4766 97.0215 3.95508 L 97.0215 -13.4277 Z"/>
  </g>
  <g id="Black-M" transform="matrix(1 0 0 1 2872.41 1126)">
   <path d="M 39.5508 -40.7715 L 39.5508 -29.4922 L 33.8379 -29.4434 C 22.0215 -29.3457 12.4512 -19.9219 12.4512 -8.10547 C 12.4512 3.56445 21.9727 13.2812 33.9355 13.2812 C 45.6055 13.2812 55.2246 3.51562 55.2246 -8.10547 L 55.2246 -13.5742 L 66.748 -13.5742 L 66.748 -8.10547 C 66.748 3.51562 76.3672 13.2812 88.0859 13.2812 C 100.049 13.2812 109.521 3.56445 109.521 -8.10547 C 109.521 -19.9219 99.9512 -29.3457 88.1348 -29.4434 L 82.4219 -29.4922 L 82.4219 -40.7715 L 88.1348 -40.8203 C 99.9512 -40.9668 109.521 -50.3418 109.521 -62.1582 C 109.521 -73.8281 100.049 -83.5449 88.0859 -83.5449 C 76.3672 -83.5449 66.748 -73.7793 66.748 -62.1582 L 66.748 -56.6895 L 55.2246 -56.6895 L 55.2246 -62.1582 C 55.2246 -73.7793 45.6055 -83.5449 33.9355 -83.5449 C 21.9727 -83.5449 12.4512 -73.8281 12.4512 -62.1582 C 12.4512 -50.3418 22.0215 -40.9668 33.8379 -40.8203 Z M 34.6191 -56.543 C 30.957 -56.543 28.4668 -59.0332 28.4668 -62.1094 C 28.4668 -65.1855 30.8594 -67.5293 33.9355 -67.5293 C 36.8652 -67.5293 39.4531 -65.0391 39.4531 -61.377 L 39.4531 -56.543 Z M 87.3535 -56.543 L 82.5684 -56.543 L 82.5684 -61.377 C 82.5684 -65.0391 85.1562 -67.5293 88.0859 -67.5293 C 91.1621 -67.5293 93.5547 -65.1855 93.5547 -62.1094 C 93.5547 -59.0332 91.0156 -56.543 87.3535 -56.543 Z M 55.3223 -29.541 L 55.3223 -40.7715 L 66.6992 -40.7715 L 66.6992 -29.541 Z M 34.6191 -13.7207 L 39.4531 -13.7207 L 39.4531 -8.88672 C 39.4531 -5.22461 36.8652 -2.73438 33.9355 -2.73438 C 30.8594 -2.73438 28.4668 -5.12695 28.4668 -8.1543 C 28.4668 -11.2305 30.957 -13.7207 34.6191 -13.7207 Z M 87.3535 -13.7207 C 91.0156 -13.7207 93.5547 -11.2305 93.5547 -8.1543 C 93.5547 -5.12695 91.1621 -2.73438 88.0859 -2.73438 C 85.1562 -2.73438 82.5684 -5.22461 82.5684 -8.88672 L 82.5684 -13.7207 Z"/>
  </g>
  <g id="Heavy-M" transform="matrix(1 0 0 1 2576.26 1126)">
   <path d="M 39.5996 -42.1387 L 39.5996 -28.1738 L 32.9102 -28.125 C 21.6309 -28.0273 12.4512 -19.0918 12.4512 -7.76367 C 12.4512 3.4668 21.582 12.7441 32.959 12.7441 C 44.1895 12.7441 53.3691 3.41797 53.3691 -7.76367 L 53.3691 -14.2578 L 67.4805 -14.2578 L 67.4805 -7.76367 C 67.4805 3.41797 76.6602 12.7441 87.8906 12.7441 C 99.2676 12.7441 108.398 3.4668 108.398 -7.76367 C 108.398 -19.0918 99.2188 -28.0273 87.9395 -28.125 L 81.25 -28.1738 L 81.25 -42.1387 L 87.9395 -42.1875 C 99.2188 -42.2852 108.398 -51.2207 108.398 -62.5488 C 108.398 -73.7793 99.2676 -83.0566 87.8906 -83.0566 C 76.6602 -83.0566 67.4805 -73.7305 67.4805 -62.5488 L 67.4805 -56.0547 L 53.3691 -56.0547 L 53.3691 -62.5488 C 53.3691 -73.7305 44.1895 -83.0566 32.959 -83.0566 C 21.582 -83.0566 12.4512 -73.7793 12.4512 -62.5488 C 12.4512 -51.2207 21.6309 -42.2852 32.9102 -42.1875 Z M 33.4961 -55.957 C 29.4434 -55.957 26.4648 -58.8867 26.4648 -62.5 C 26.4648 -66.1621 29.3457 -68.9941 32.959 -68.9941 C 36.4746 -68.9941 39.502 -66.0645 39.502 -61.9629 L 39.502 -55.957 Z M 87.3535 -55.957 L 81.3477 -55.957 L 81.3477 -61.9629 C 81.3477 -66.0645 84.375 -68.9941 87.8906 -68.9941 C 91.5039 -68.9941 94.3848 -66.1621 94.3848 -62.5 C 94.3848 -58.8867 91.4062 -55.957 87.3535 -55.957 Z M 53.418 -28.1738 L 53.418 -42.1387 L 67.4316 -42.1387 L 67.4316 -28.1738 Z M 33.4961 -14.3555 L 39.502 -14.3555 L 39.502 -8.34961 C 39.502 -4.29688 36.4746 -1.31836 32.959 -1.31836 C 29.3457 -1.31836 26.4648 -4.19922 26.4648 -7.8125 C 26.4648 -11.4258 29.4434 -14.3555 33.4961 -14.3555 Z M 87.3535 -14.3555 C 91.4062 -14.3555 94.3848 -11.4258 94.3848 -7.8125 C 94.3848 -4.19922 91.5039 -1.31836 87.8906 -1.31836 C 84.375 -1.31836 81.3477 -4.29688 81.3477 -8.34961 L 81.3477 -14.3555 Z"/>
  </g>
  <g id="Bold-M" transform="matrix(1 0 0 1 2280.19 1126)">
   <path d="M 39.6484 -43.7012 L 39.6484 -26.6602 L 31.8848 -26.6602 C 21.1426 -26.5625 12.4512 -18.1152 12.4512 -7.37305 C 12.4512 3.32031 21.0938 12.1094 31.8848 12.1094 C 42.5781 12.1094 51.2695 3.32031 51.2695 -7.37305 L 51.2695 -14.9902 L 68.3105 -14.9902 L 68.3105 -7.37305 C 68.3105 3.32031 77.002 12.1094 87.6953 12.1094 C 98.4375 12.1094 107.129 3.32031 107.129 -7.37305 C 107.129 -18.1152 98.4375 -26.5625 87.6953 -26.6602 L 79.9316 -26.6602 L 79.9316 -43.7012 L 87.6953 -43.7012 C 98.4375 -43.7988 107.129 -52.2461 107.129 -63.0371 C 107.129 -73.6816 98.4375 -82.4707 87.6953 -82.4707 C 77.002 -82.4707 68.3105 -73.6816 68.3105 -63.0371 L 68.3105 -55.3711 L 51.2695 -55.3711 L 51.2695 -63.0371 C 51.2695 -73.6816 42.5781 -82.4707 31.8848 -82.4707 C 21.0938 -82.4707 12.4512 -73.6816 12.4512 -63.0371 C 12.4512 -52.2461 21.1426 -43.7988 31.8848 -43.7012 Z M 32.2266 -55.2734 C 27.7344 -55.2734 24.2676 -58.7402 24.2676 -62.9883 C 24.2676 -67.2363 27.6855 -70.6543 31.8848 -70.6543 C 36.0352 -70.6543 39.5508 -67.1875 39.5508 -62.6465 L 39.5508 -55.2734 Z M 87.3047 -55.2734 L 79.9805 -55.2734 L 79.9805 -62.6465 C 79.9805 -67.1875 83.4961 -70.6543 87.6953 -70.6543 C 91.8945 -70.6543 95.3125 -67.2363 95.3125 -62.9883 C 95.3125 -58.7402 91.8457 -55.2734 87.3047 -55.2734 Z M 51.3184 -26.6113 L 51.3184 -43.75 L 68.2617 -43.75 L 68.2617 -26.6113 Z M 32.2266 -15.1367 L 39.5508 -15.1367 L 39.5508 -7.76367 C 39.5508 -3.22266 36.0352 0.244141 31.8848 0.244141 C 27.6855 0.244141 24.2676 -3.17383 24.2676 -7.42188 C 24.2676 -11.6699 27.7344 -15.1367 32.2266 -15.1367 Z M 87.3047 -15.1367 C 91.8457 -15.1367 95.3125 -11.6699 95.3125 -7.42188 C 95.3125 -3.17383 91.8945 0.244141 87.6953 0.244141 C 83.4961 0.244141 79.9805 -3.22266 79.9805 -7.76367 L 79.9805 -15.1367 Z"/>
  </g>
  <g id="Semibold-M" transform="matrix(1 0 0 1 1983.92 1126)">
   <path d="M 39.6484 -44.7754 L 39.6484 -25.6348 L 31.1523 -25.6348 C 20.8496 -25.5859 12.4512 -17.4316 12.4512 -7.08008 C 12.4512 3.22266 20.8008 11.6699 31.1523 11.6699 C 41.4551 11.6699 49.8535 3.22266 49.8535 -7.08008 L 49.8535 -15.4785 L 68.8477 -15.4785 L 68.8477 -7.08008 C 68.8477 3.22266 77.2461 11.6699 87.5488 11.6699 C 97.9004 11.6699 106.25 3.22266 106.25 -7.08008 C 106.25 -17.4316 97.8516 -25.5859 87.5488 -25.6348 L 79.0527 -25.6348 L 79.0527 -44.7754 L 87.5488 -44.7754 C 97.8516 -44.8242 106.25 -52.9785 106.25 -63.3301 C 106.25 -73.6328 97.9004 -82.0801 87.5488 -82.0801 C 77.2461 -82.0801 68.8477 -73.6328 68.8477 -63.3301 L 68.8477 -54.9316 L 49.8535 -54.9316 L 49.8535 -63.3301 C 49.8535 -73.6328 41.4551 -82.0801 31.1523 -82.0801 C 20.8008 -82.0801 12.4512 -73.6328 12.4512 -63.3301 C 12.4512 -52.9785 20.8496 -44.8242 31.1523 -44.7754 Z M 31.3965 -54.834 C 26.5625 -54.834 22.7539 -58.6426 22.7539 -63.3301 C 22.7539 -67.9688 26.5137 -71.7773 31.1523 -71.7773 C 35.7422 -71.7773 39.5996 -67.9688 39.5996 -63.0859 L 39.5996 -54.834 Z M 87.3047 -54.834 L 79.0527 -54.834 L 79.0527 -63.0859 C 79.0527 -67.9688 82.9102 -71.7773 87.5488 -71.7773 C 92.1387 -71.7773 95.9473 -67.9688 95.9473 -63.3301 C 95.9473 -58.6426 92.1387 -54.834 87.3047 -54.834 Z M 49.8535 -25.5859 L 49.8535 -44.8242 L 68.8477 -44.8242 L 68.8477 -25.5859 Z M 31.3965 -15.625 L 39.5996 -15.625 L 39.5996 -7.37305 C 39.5996 -2.49023 35.7422 1.36719 31.1523 1.36719 C 26.5137 1.36719 22.7539 -2.44141 22.7539 -7.12891 C 22.7539 -11.8164 26.5625 -15.625 31.3965 -15.625 Z M 87.3047 -15.625 C 92.1387 -15.625 95.9473 -11.8164 95.9473 -7.12891 C 95.9473 -2.44141 92.1387 1.36719 87.5488 1.36719 C 82.9102 1.36719 79.0527 -2.49023 79.0527 -7.37305 L 79.0527 -15.625 Z"/>
  </g>
  <g id="Medium-M" transform="matrix(1 0 0 1 1687.55 1126)">
   <path d="M 39.6973 -45.5566 L 39.6973 -24.8535 L 30.6152 -24.8535 C 20.6055 -24.8535 12.4512 -16.9434 12.4512 -6.88477 C 12.4512 3.17383 20.5566 11.3281 30.6152 11.3281 C 40.5762 11.3281 48.7305 3.17383 48.7305 -6.88477 L 48.7305 -15.8691 L 69.2871 -15.8691 L 69.2871 -6.88477 C 69.2871 3.17383 77.4414 11.3281 87.4023 11.3281 C 97.4609 11.3281 105.566 3.17383 105.566 -6.88477 C 105.566 -16.9434 97.4121 -24.8535 87.4023 -24.8535 L 78.3203 -24.8535 L 78.3203 -45.5566 L 87.4023 -45.5566 C 97.4121 -45.6055 105.566 -53.5156 105.566 -63.5742 C 105.566 -73.584 97.4609 -81.7871 87.4023 -81.7871 C 77.4414 -81.7871 69.2871 -73.584 69.2871 -63.5742 L 69.2871 -54.541 L 48.7305 -54.541 L 48.7305 -63.5742 C 48.7305 -73.584 40.5762 -81.7871 30.6152 -81.7871 C 20.5566 -81.7871 12.4512 -73.584 12.4512 -63.5742 C 12.4512 -53.5156 20.6055 -45.6055 30.6152 -45.5566 Z M 30.7617 -54.4434 C 25.6836 -54.4434 21.582 -58.5449 21.582 -63.5742 C 21.582 -68.5547 25.6836 -72.6562 30.6152 -72.6562 C 35.5469 -72.6562 39.6484 -68.5547 39.6484 -63.4277 L 39.6484 -54.4434 Z M 87.3047 -54.4434 L 78.3691 -54.4434 L 78.3691 -63.4277 C 78.3691 -68.5547 82.4707 -72.6562 87.4023 -72.6562 C 92.3828 -72.6562 96.4355 -68.5547 96.4355 -63.5742 C 96.4355 -58.5449 92.334 -54.4434 87.3047 -54.4434 Z M 48.7793 -24.8047 L 48.7793 -45.6543 L 69.2871 -45.6543 L 69.2871 -24.8047 Z M 30.7617 -16.0156 L 39.6484 -16.0156 L 39.6484 -7.03125 C 39.6484 -1.95312 35.5469 2.14844 30.6152 2.14844 C 25.6836 2.14844 21.582 -1.9043 21.582 -6.93359 C 21.582 -11.9141 25.6836 -16.0156 30.7617 -16.0156 Z M 87.3047 -16.0156 C 92.334 -16.0156 96.4355 -11.9141 96.4355 -6.93359 C 96.4355 -1.9043 92.3828 2.14844 87.4023 2.14844 C 82.4707 2.14844 78.3691 -1.95312 78.3691 -7.03125 L 78.3691 -16.0156 Z"/>
  </g>
  <g id="Regular-M" transform="matrix(1 0 0 1 1391.28 1126)">
   <path d="M 39.6973 -46.6309 L 39.6973 -23.8281 L 29.8828 -23.8281 C 20.2637 -23.8281 12.4512 -16.2598 12.4512 -6.5918 C 12.4512 3.07617 20.2637 10.8887 29.8828 10.8887 C 39.502 10.8887 47.3145 3.07617 47.3145 -6.5918 L 47.3145 -16.3574 L 69.8242 -16.3574 L 69.8242 -6.5918 C 69.8242 3.07617 77.6367 10.8887 87.2559 10.8887 C 96.875 10.8887 104.688 3.07617 104.688 -6.5918 C 104.688 -16.2598 96.875 -23.8281 87.2559 -23.8281 L 77.4414 -23.8281 L 77.4414 -46.6309 L 87.2559 -46.6309 C 96.875 -46.6309 104.688 -54.1992 104.688 -63.8672 C 104.688 -73.5352 96.875 -81.3965 87.2559 -81.3965 C 77.6367 -81.3965 69.8242 -73.5352 69.8242 -63.8672 L 69.8242 -54.1016 L 47.3145 -54.1016 L 47.3145 -63.8672 C 47.3145 -73.5352 39.502 -81.3965 29.8828 -81.3965 C 20.2637 -81.3965 12.4512 -73.5352 12.4512 -63.8672 C 12.4512 -54.1992 20.2637 -46.6309 29.8828 -46.6309 Z M 29.8828 -54.0039 C 24.5117 -54.0039 20.0684 -58.4473 20.0684 -63.8672 C 20.0684 -69.2871 24.5117 -73.7793 29.8828 -73.7793 C 35.2539 -73.7793 39.6973 -69.2871 39.6973 -63.8672 L 39.6973 -54.0039 Z M 87.2559 -54.0039 L 77.4414 -54.0039 L 77.4414 -63.8672 C 77.4414 -69.2871 81.8848 -73.7793 87.2559 -73.7793 C 92.627 -73.7793 97.0703 -69.2871 97.0703 -63.8672 C 97.0703 -58.4473 92.627 -54.0039 87.2559 -54.0039 Z M 47.3145 -23.7305 L 47.3145 -46.7285 L 69.8242 -46.7285 L 69.8242 -23.7305 Z M 29.8828 -16.5039 L 39.6973 -16.5039 L 39.6973 -6.64062 C 39.6973 -1.2207 35.2539 3.22266 29.8828 3.22266 C 24.5117 3.22266 20.0684 -1.2207 20.0684 -6.64062 C 20.0684 -12.0605 24.5117 -16.5039 29.8828 -16.5039 Z M 87.2559 -16.5039 C 92.627 -16.5039 97.0703 -12.0605 97.0703 -6.64062 C 97.0703 -1.2207 92.627 3.22266 87.2559 3.22266 C 81.8848 3.22266 77.4414 -1.2207 77.4414 -6.64062 L 77.4414 -16.5039 Z"/>
  </g>
  <g id="Light-M" transform="matrix(1 0 0 1 1094.66 1126)">
   <path d="M 40.1855 -47.7051 L 40.1855 -22.7539 L 29.248 -22.7539 C 20.0195 -22.7539 12.4512 -15.3809 12.4512 -6.05469 C 12.4512 3.22266 20.0195 10.791 29.248 10.791 C 38.5254 10.791 46.0449 3.22266 46.0449 -6.05469 L 46.0449 -16.9922 L 70.8984 -16.9922 L 70.8984 -6.05469 C 70.8984 3.22266 78.418 10.791 87.6953 10.791 C 96.9238 10.791 104.492 3.22266 104.492 -6.05469 C 104.492 -15.3809 96.9238 -22.7539 87.6953 -22.7539 L 76.7578 -22.7539 L 76.7578 -47.7051 L 87.6953 -47.7051 C 96.9238 -47.7051 104.492 -55.127 104.492 -64.4043 C 104.492 -73.7305 96.9238 -81.2988 87.6953 -81.2988 C 78.418 -81.2988 70.8984 -73.7305 70.8984 -64.4043 L 70.8984 -53.5156 L 46.0449 -53.5156 L 46.0449 -64.4043 C 46.0449 -73.7305 38.5254 -81.2988 29.248 -81.2988 C 20.0195 -81.2988 12.4512 -73.7305 12.4512 -64.4043 C 12.4512 -55.127 20.0195 -47.7051 29.248 -47.7051 Z M 29.248 -53.418 C 23.291 -53.418 18.3105 -58.3984 18.3105 -64.4043 C 18.3105 -70.459 23.291 -75.4395 29.248 -75.4395 C 35.2539 -75.4395 40.1855 -70.459 40.1855 -64.4043 L 40.1855 -53.418 Z M 87.6953 -53.418 L 76.7578 -53.418 L 76.7578 -64.4043 C 76.7578 -70.459 81.6895 -75.4395 87.6953 -75.4395 C 93.6523 -75.4395 98.6328 -70.459 98.6328 -64.4043 C 98.6328 -58.3984 93.6523 -53.418 87.6953 -53.418 Z M 46.0449 -22.7051 L 46.0449 -47.8027 L 70.8984 -47.8027 L 70.8984 -22.7051 Z M 29.248 -17.0898 L 40.1855 -17.0898 L 40.1855 -6.10352 C 40.1855 -0.0488281 35.2539 4.88281 29.248 4.88281 C 23.291 4.88281 18.3105 -0.0488281 18.3105 -6.10352 C 18.3105 -12.1582 23.291 -17.0898 29.248 -17.0898 Z M 87.6953 -17.0898 C 93.6523 -17.0898 98.6328 -12.1582 98.6328 -6.10352 C 98.6328 -0.0488281 93.6523 4.88281 87.6953 4.88281 C 81.6895 4.88281 76.7578 -0.0488281 76.7578 -6.10352 L 76.7578 -17.0898 Z"/>
  </g>
  <g id="Thin-M" transform="matrix(1 0 0 1 798.097 1126)">
   <path d="M 40.8203 -49.1699 L 40.8203 -21.3379 L 28.418 -21.3379 C 19.6777 -21.3379 12.4512 -14.209 12.4512 -5.37109 C 12.4512 3.4668 19.6777 10.6934 28.418 10.6934 C 37.207 10.6934 44.3848 3.4668 44.3848 -5.37109 L 44.3848 -17.8223 L 72.2656 -17.8223 L 72.2656 -5.37109 C 72.2656 3.4668 79.4434 10.6934 88.2324 10.6934 C 96.9727 10.6934 104.199 3.4668 104.199 -5.37109 C 104.199 -14.209 96.9727 -21.3379 88.2324 -21.3379 L 75.8301 -21.3379 L 75.8301 -49.1699 L 88.2324 -49.1699 C 96.9727 -49.1699 104.199 -56.2988 104.199 -65.1367 C 104.199 -73.9746 96.9727 -81.2012 88.2324 -81.2012 C 79.4434 -81.2012 72.2656 -73.9746 72.2656 -65.1367 L 72.2656 -52.6855 L 44.3848 -52.6855 L 44.3848 -65.1367 C 44.3848 -73.9746 37.207 -81.2012 28.418 -81.2012 C 19.6777 -81.2012 12.4512 -73.9746 12.4512 -65.1367 C 12.4512 -56.2988 19.6777 -49.1699 28.418 -49.1699 Z M 28.418 -52.6855 C 21.6309 -52.6855 16.0156 -58.3008 16.0156 -65.1367 C 16.0156 -71.9727 21.6309 -77.5879 28.418 -77.5879 C 35.2051 -77.5879 40.8203 -71.9727 40.8203 -65.1367 L 40.8203 -52.6855 Z M 88.2324 -52.6855 L 75.8301 -52.6855 L 75.8301 -65.1367 C 75.8301 -71.9727 81.4453 -77.5879 88.2324 -77.5879 C 95.0195 -77.5879 100.635 -71.9727 100.635 -65.1367 C 100.635 -58.3008 95.0195 -52.6855 88.2324 -52.6855 Z M 44.3848 -21.3379 L 44.3848 -49.1699 L 72.2656 -49.1699 L 72.2656 -21.3379 Z M 28.418 -17.8223 L 40.8203 -17.8223 L 40.8203 -5.37109 C 40.8203 1.46484 35.2051 7.08008 28.418 7.08008 C 21.6309 7.08008 16.0156 1.46484 16.0156 -5.37109 C 16.0156 -12.207 21.6309 -17.8223 28.418 -17.8223 Z M 88.2324 -17.8223 C 95.0195 -17.8223 100.635 -12.207 100.635 -5.37109 C 100.635 1.46484 95.0195 7.08008 88.2324 7.08008 C 81.4453 7.08008 75.8301 1.46484 75.8301 -5.37109 L 75.8301 -17.8223 Z"/>
  </g>
  <g id="Ultralight-M" transform="matrix(1 0 0 1 501.459 1126)">
   <path d="M 41.1621 -49.9023 L 41.1621 -20.6055 L 27.9785 -20.6055 C 19.4824 -20.6055 12.4512 -13.5742 12.4512 -4.98047 C 12.4512 3.56445 19.4824 10.5957 27.9785 10.5957 C 36.5234 10.5957 43.5547 3.56445 43.5547 -4.98047 L 43.5547 -18.2129 L 72.9492 -18.2129 L 72.9492 -4.98047 C 72.9492 3.56445 79.9805 10.5957 88.5254 10.5957 C 97.0215 10.5957 104.053 3.56445 104.053 -4.98047 C 104.053 -13.5742 97.0215 -20.6055 88.5254 -20.6055 L 75.3418 -20.6055 L 75.3418 -49.9023 L 88.5254 -49.9023 C 97.0215 -49.9023 104.053 -56.9336 104.053 -65.5273 C 104.053 -74.1211 97.0215 -81.1035 88.5254 -81.1035 C 79.9805 -81.1035 72.9492 -74.1211 72.9492 -65.5273 L 72.9492 -52.2949 L 43.5547 -52.2949 L 43.5547 -65.5273 C 43.5547 -74.1211 36.5234 -81.1035 27.9785 -81.1035 C 19.4824 -81.1035 12.4512 -74.1211 12.4512 -65.5273 C 12.4512 -56.9336 19.4824 -49.9023 27.9785 -49.9023 Z M 27.9785 -52.2949 C 20.8008 -52.2949 14.8438 -58.252 14.8438 -65.5273 C 14.8438 -72.8027 20.8008 -78.7109 27.9785 -78.7109 C 35.2051 -78.7109 41.1621 -72.8027 41.1621 -65.5273 L 41.1621 -52.2949 Z M 88.5254 -52.2949 L 75.3418 -52.2949 L 75.3418 -65.5273 C 75.3418 -72.8027 81.2988 -78.7109 88.5254 -78.7109 C 95.7031 -78.7109 101.66 -72.8027 101.66 -65.5273 C 101.66 -58.252 95.7031 -52.2949 88.5254 -52.2949 Z M 43.5547 -20.6055 L 43.5547 -49.9023 L 72.9492 -49.9023 L 72.9492 -20.6055 Z M 27.9785 -18.2129 L 41.1621 -18.2129 L 41.1621 -4.98047 C 41.1621 2.24609 35.2051 8.20312 27.9785 8.20312 C 20.8008 8.20312 14.8438 2.24609 14.8438 -4.98047 C 14.8438 -12.2559 20.8008 -18.2129 27.9785 -18.2129 Z M 88.5254 -18.2129 C 95.7031 -18.2129 101.66 -12.2559 101.66 -4.98047 C 101.66 2.24609 95.7031 8.20312 88.5254 8.20312 C 81.2988 8.20312 75.3418 2.24609 75.3418 -4.98047 L 75.3418 -18.2129 Z"/>
  </g>
  <g id="Black-S" transform="matrix(1 0 0 1 2885.65 696)">
   <path d="M 31.0059 -39.6484 L 31.0059 -30.6641 L 26.4648 -30.6152 C 17.2363 -30.5176 9.76562 -23.1934 9.76562 -13.9648 C 9.76562 -4.83398 17.1875 2.73438 26.5137 2.73438 C 35.6445 2.73438 43.1641 -4.88281 43.1641 -13.9648 L 43.1641 -18.3105 L 52.3438 -18.3105 L 52.3438 -13.9648 C 52.3438 -4.88281 59.8633 2.73438 68.9941 2.73438 C 78.3203 2.73438 85.7422 -4.83398 85.7422 -13.9648 C 85.7422 -23.1934 78.2715 -30.5176 69.043 -30.6152 L 64.502 -30.6641 L 64.502 -39.6484 L 69.043 -39.6973 C 78.2715 -39.7949 85.7422 -47.1191 85.7422 -56.3477 C 85.7422 -65.4785 78.3203 -73.0469 68.9941 -73.0469 C 59.8633 -73.0469 52.3438 -65.4297 52.3438 -56.3477 L 52.3438 -52.002 L 43.1641 -52.002 L 43.1641 -56.3477 C 43.1641 -65.4297 35.6445 -73.0469 26.5137 -73.0469 C 17.1875 -73.0469 9.76562 -65.4785 9.76562 -56.3477 C 9.76562 -47.1191 17.2363 -39.7949 26.4648 -39.6973 Z M 27.0508 -51.9043 C 24.1699 -51.9043 22.168 -53.8574 22.168 -56.2988 C 22.168 -58.7402 24.0723 -60.6445 26.5137 -60.6445 C 28.8574 -60.6445 30.9082 -58.6426 30.9082 -55.7617 L 30.9082 -51.9043 Z M 68.457 -51.9043 L 64.5996 -51.9043 L 64.5996 -55.7617 C 64.5996 -58.6426 66.6504 -60.6445 68.9941 -60.6445 C 71.4355 -60.6445 73.3398 -58.7402 73.3398 -56.2988 C 73.3398 -53.8574 71.3379 -51.9043 68.457 -51.9043 Z M 43.2129 -30.6641 L 43.2129 -39.6484 L 52.2949 -39.6484 L 52.2949 -30.6641 Z M 27.0508 -18.4082 L 30.9082 -18.4082 L 30.9082 -14.5508 C 30.9082 -11.6699 28.8574 -9.66797 26.5137 -9.66797 C 24.0723 -9.66797 22.168 -11.5723 22.168 -14.0137 C 22.168 -16.4551 24.1699 -18.4082 27.0508 -18.4082 Z M 68.457 -18.4082 C 71.3379 -18.4082 73.3398 -16.4551 73.3398 -14.0137 C 73.3398 -11.5723 71.4355 -9.66797 68.9941 -9.66797 C 66.6504 -9.66797 64.5996 -11.6699 64.5996 -14.5508 L 64.5996 -18.4082 Z"/>
  </g>
  <g id="Heavy-S" transform="matrix(1 0 0 1 2589.35 696)">
   <path d="M 30.957 -40.5762 L 30.957 -29.7363 L 25.8301 -29.7363 C 16.9434 -29.6387 9.76562 -22.6074 9.76562 -13.7695 C 9.76562 -4.93164 16.8945 2.29492 25.8789 2.29492 C 34.668 2.29492 41.8945 -4.98047 41.8945 -13.7695 L 41.8945 -18.75 L 52.7832 -18.75 L 52.7832 -13.7695 C 52.7832 -4.98047 60.0098 2.29492 68.7988 2.29492 C 77.7344 2.29492 84.9121 -4.93164 84.9121 -13.7695 C 84.9121 -22.6074 77.6855 -29.6387 68.8477 -29.7363 L 63.6719 -29.7363 L 63.6719 -40.5762 L 68.8477 -40.625 C 77.6855 -40.7227 84.9121 -47.7051 84.9121 -56.5918 C 84.9121 -65.3809 77.7344 -72.6562 68.7988 -72.6562 C 60.0098 -72.6562 52.7832 -65.3809 52.7832 -56.5918 L 52.7832 -51.6113 L 41.8945 -51.6113 L 41.8945 -56.5918 C 41.8945 -65.3809 34.668 -72.6562 25.8789 -72.6562 C 16.8945 -72.6562 9.76562 -65.3809 9.76562 -56.5918 C 9.76562 -47.7051 16.9434 -40.7227 25.8301 -40.625 Z M 26.2695 -51.5137 C 23.1445 -51.5137 20.8496 -53.7598 20.8496 -56.543 C 20.8496 -59.375 23.0469 -61.5723 25.8789 -61.5723 C 28.5645 -61.5723 30.9082 -59.2773 30.9082 -56.1523 L 30.9082 -51.5137 Z M 68.4082 -51.5137 L 63.7695 -51.5137 L 63.7695 -56.1523 C 63.7695 -59.2773 66.1133 -61.5723 68.7988 -61.5723 C 71.582 -61.5723 73.8281 -59.375 73.8281 -56.543 C 73.8281 -53.7598 71.5332 -51.5137 68.4082 -51.5137 Z M 41.8945 -29.7363 L 41.8945 -40.625 L 52.7344 -40.625 L 52.7344 -29.7363 Z M 26.2695 -18.8477 L 30.9082 -18.8477 L 30.9082 -14.209 C 30.9082 -11.084 28.5645 -8.78906 25.8789 -8.78906 C 23.0469 -8.78906 20.8496 -10.9863 20.8496 -13.8184 C 20.8496 -16.6016 23.1445 -18.8477 26.2695 -18.8477 Z M 68.4082 -18.8477 C 71.5332 -18.8477 73.8281 -16.6016 73.8281 -13.8184 C 73.8281 -10.9863 71.582 -8.78906 68.7988 -8.78906 C 66.1133 -8.78906 63.7695 -11.084 63.7695 -14.209 L 63.7695 -18.8477 Z"/>
  </g>
  <g id="Bold-S" transform="matrix(1 0 0 1 2293.13 696)">
   <path d="M 30.957 -41.6504 L 30.957 -28.7598 L 25.0977 -28.7109 C 16.6504 -28.6621 9.76562 -22.0215 9.76562 -13.5254 C 9.76562 -5.07812 16.6016 1.85547 25.1465 1.85547 C 33.5449 1.85547 40.4297 -5.07812 40.4297 -13.5254 L 40.4297 -19.2383 L 53.2715 -19.2383 L 53.2715 -13.5254 C 53.2715 -5.07812 60.1562 1.85547 68.6035 1.85547 C 77.0996 1.85547 83.9355 -5.07812 83.9355 -13.5254 C 83.9355 -22.0215 77.0996 -28.6621 68.6035 -28.7109 L 62.7441 -28.7598 L 62.7441 -41.6504 L 68.6035 -41.6504 C 77.0996 -41.6992 83.9355 -48.3887 83.9355 -56.8848 C 83.9355 -65.332 77.0996 -72.2168 68.6035 -72.2168 C 60.1562 -72.2168 53.2715 -65.2832 53.2715 -56.8848 L 53.2715 -51.1719 L 40.4297 -51.1719 L 40.4297 -56.8848 C 40.4297 -65.2832 33.5449 -72.2168 25.1465 -72.2168 C 16.6016 -72.2168 9.76562 -65.332 9.76562 -56.8848 C 9.76562 -48.3887 16.6504 -41.6992 25.0977 -41.6504 Z M 25.3906 -51.0742 C 22.0215 -51.0742 19.3848 -53.6621 19.3848 -56.8359 C 19.3848 -60.0586 21.9727 -62.6465 25.1465 -62.6465 C 28.2227 -62.6465 30.9082 -60.0098 30.9082 -56.5918 L 30.9082 -51.0742 Z M 68.3105 -51.0742 L 62.793 -51.0742 L 62.793 -56.5918 C 62.793 -60.0098 65.4785 -62.6465 68.6035 -62.6465 C 71.7773 -62.6465 74.3164 -60.0586 74.3164 -56.8359 C 74.3164 -53.6621 71.7285 -51.0742 68.3105 -51.0742 Z M 40.4785 -28.7109 L 40.4785 -41.6992 L 53.2715 -41.6992 L 53.2715 -28.7109 Z M 25.3906 -19.3359 L 30.9082 -19.3359 L 30.9082 -13.8184 C 30.9082 -10.4004 28.2227 -7.76367 25.1465 -7.76367 C 21.9727 -7.76367 19.3848 -10.3516 19.3848 -13.5742 C 19.3848 -16.748 22.0215 -19.3359 25.3906 -19.3359 Z M 68.3105 -19.3359 C 71.7285 -19.3359 74.3164 -16.748 74.3164 -13.5742 C 74.3164 -10.3516 71.7773 -7.76367 68.6035 -7.76367 C 65.4785 -7.76367 62.793 -10.4004 62.793 -13.8184 L 62.793 -19.3359 Z"/>
  </g>
  <g id="Semibold-S" transform="matrix(1 0 0 1 1996.73 696)">
   <path d="M 30.9082 -42.3828 L 30.9082 -28.0762 L 24.6094 -28.0273 C 16.4062 -28.0273 9.76562 -21.582 9.76562 -13.3301 C 9.76562 -5.12695 16.4062 1.51367 24.6094 1.51367 C 32.7637 1.51367 39.4531 -5.17578 39.4531 -13.3301 L 39.4531 -19.5801 L 53.6133 -19.5801 L 53.6133 -13.3301 C 53.6133 -5.17578 60.3027 1.51367 68.457 1.51367 C 76.6602 1.51367 83.3008 -5.12695 83.3008 -13.3301 C 83.3008 -21.582 76.6602 -28.0273 68.457 -28.0273 L 62.1094 -28.0762 L 62.1094 -42.3828 L 68.457 -42.3828 C 76.6602 -42.4316 83.3008 -48.8281 83.3008 -57.0801 C 83.3008 -65.2832 76.6602 -71.9238 68.457 -71.9238 C 60.3027 -71.9238 53.6133 -65.2344 53.6133 -57.0801 L 53.6133 -50.8301 L 39.4531 -50.8301 L 39.4531 -57.0801 C 39.4531 -65.2344 32.7637 -71.9238 24.6094 -71.9238 C 16.4062 -71.9238 9.76562 -65.2832 9.76562 -57.0801 C 9.76562 -48.8281 16.4062 -42.4316 24.6094 -42.3828 Z M 24.8047 -50.7324 C 21.1914 -50.7324 18.3594 -53.5645 18.3594 -57.0801 C 18.3594 -60.5469 21.1914 -63.3301 24.6094 -63.3301 C 28.0273 -63.3301 30.9082 -60.498 30.9082 -56.8848 L 30.9082 -50.7324 Z M 68.2617 -50.7324 L 62.1582 -50.7324 L 62.1582 -56.8848 C 62.1582 -60.498 65.0391 -63.3301 68.457 -63.3301 C 71.875 -63.3301 74.707 -60.5469 74.707 -57.0801 C 74.707 -53.5645 71.8262 -50.7324 68.2617 -50.7324 Z M 39.4531 -27.9785 L 39.4531 -42.4316 L 53.6133 -42.4316 L 53.6133 -27.9785 Z M 24.8047 -19.6777 L 30.9082 -19.6777 L 30.9082 -13.5742 C 30.9082 -9.96094 28.0273 -7.08008 24.6094 -7.08008 C 21.1914 -7.08008 18.3594 -9.91211 18.3594 -13.3789 C 18.3594 -16.8457 21.1914 -19.6777 24.8047 -19.6777 Z M 68.2617 -19.6777 C 71.8262 -19.6777 74.707 -16.8457 74.707 -13.3789 C 74.707 -9.91211 71.875 -7.08008 68.457 -7.08008 C 65.0391 -7.08008 62.1582 -9.96094 62.1582 -13.5742 L 62.1582 -19.6777 Z"/>
  </g>
  <g id="Medium-S" transform="matrix(1 0 0 1 1700.27 696)">
   <path d="M 30.9082 -42.9199 L 30.9082 -27.5391 L 24.2188 -27.5391 C 16.2598 -27.4902 9.76562 -21.2402 9.76562 -13.2324 C 9.76562 -5.22461 16.2109 1.26953 24.2188 1.26953 C 32.1777 1.26953 38.6719 -5.22461 38.6719 -13.2324 L 38.6719 -19.8242 L 53.8574 -19.8242 L 53.8574 -13.2324 C 53.8574 -5.22461 60.3516 1.26953 68.3105 1.26953 C 76.3184 1.26953 82.8125 -5.22461 82.8125 -13.2324 C 82.8125 -21.2402 76.3184 -27.4902 68.3105 -27.5391 L 61.6699 -27.5391 L 61.6699 -42.9199 L 68.3105 -42.9199 C 76.3184 -42.9199 82.8125 -49.2188 82.8125 -57.2266 C 82.8125 -65.2344 76.3184 -71.7285 68.3105 -71.7285 C 60.3516 -71.7285 53.8574 -65.2344 53.8574 -57.2266 L 53.8574 -50.5859 L 38.6719 -50.5859 L 38.6719 -57.2266 C 38.6719 -65.2344 32.1777 -71.7285 24.2188 -71.7285 C 16.2109 -71.7285 9.76562 -65.2344 9.76562 -57.2266 C 9.76562 -49.2188 16.2598 -42.9199 24.2188 -42.9199 Z M 24.3164 -50.4883 C 20.6055 -50.4883 17.5781 -53.5156 17.5781 -57.2266 C 17.5781 -60.8887 20.6055 -63.916 24.2188 -63.916 C 27.832 -63.916 30.9082 -60.8887 30.9082 -57.1289 L 30.9082 -50.4883 Z M 68.2129 -50.4883 L 61.6699 -50.4883 L 61.6699 -57.1289 C 61.6699 -60.8887 64.6973 -63.916 68.3105 -63.916 C 71.9727 -63.916 74.9512 -60.8887 74.9512 -57.2266 C 74.9512 -53.5156 71.9727 -50.4883 68.2129 -50.4883 Z M 38.6719 -27.4414 L 38.6719 -42.9688 L 53.8574 -42.9688 L 53.8574 -27.4414 Z M 24.3164 -19.9707 L 30.9082 -19.9707 L 30.9082 -13.3789 C 30.9082 -9.61914 27.832 -6.5918 24.2188 -6.5918 C 20.6055 -6.5918 17.5781 -9.57031 17.5781 -13.2812 C 17.5781 -16.9434 20.6055 -19.9707 24.3164 -19.9707 Z M 68.2129 -19.9707 C 71.9727 -19.9707 74.9512 -16.9434 74.9512 -13.2812 C 74.9512 -9.57031 71.9727 -6.5918 68.3105 -6.5918 C 64.6973 -6.5918 61.6699 -9.61914 61.6699 -13.3789 L 61.6699 -19.9707 Z"/>
  </g>
  <g id="Regular-S" transform="matrix(1 0 0 1 1403.9 696)">
   <path d="M 30.9082 -43.6035 L 30.9082 -26.8555 L 23.7305 -26.8555 C 16.0156 -26.8555 9.76562 -20.8008 9.76562 -13.0371 C 9.76562 -5.27344 16.0156 0.976562 23.7305 0.976562 C 31.4453 0.976562 37.6953 -5.27344 37.6953 -13.0371 L 37.6953 -20.166 L 54.1992 -20.166 L 54.1992 -13.0371 C 54.1992 -5.27344 60.4492 0.976562 68.1641 0.976562 C 75.8789 0.976562 82.1289 -5.27344 82.1289 -13.0371 C 82.1289 -20.8008 75.8789 -26.8555 68.1641 -26.8555 L 61.0352 -26.8555 L 61.0352 -43.6035 L 68.1641 -43.6035 C 75.8789 -43.6035 82.1289 -49.6582 82.1289 -57.4219 C 82.1289 -65.1855 75.8789 -71.4355 68.1641 -71.4355 C 60.4492 -71.4355 54.1992 -65.1855 54.1992 -57.4219 L 54.1992 -50.293 L 37.6953 -50.293 L 37.6953 -57.4219 C 37.6953 -65.1855 31.4453 -71.4355 23.7305 -71.4355 C 16.0156 -71.4355 9.76562 -65.1855 9.76562 -57.4219 C 9.76562 -49.6582 16.0156 -43.6035 23.7305 -43.6035 Z M 23.7305 -50.1953 C 19.8242 -50.1953 16.5527 -53.4668 16.5527 -57.4219 C 16.5527 -61.377 19.8242 -64.5996 23.7305 -64.5996 C 27.6367 -64.5996 30.9082 -61.377 30.9082 -57.4219 L 30.9082 -50.1953 Z M 68.1641 -50.1953 L 61.0352 -50.1953 L 61.0352 -57.4219 C 61.0352 -61.377 64.2578 -64.5996 68.1641 -64.5996 C 72.0703 -64.5996 75.3418 -61.377 75.3418 -57.4219 C 75.3418 -53.4668 72.0703 -50.1953 68.1641 -50.1953 Z M 37.6953 -26.7578 L 37.6953 -43.7012 L 54.1992 -43.7012 L 54.1992 -26.7578 Z M 23.7305 -20.3125 L 30.9082 -20.3125 L 30.9082 -13.0859 C 30.9082 -9.13086 27.6367 -5.9082 23.7305 -5.9082 C 19.8242 -5.9082 16.5527 -9.13086 16.5527 -13.0859 C 16.5527 -17.041 19.8242 -20.3125 23.7305 -20.3125 Z M 68.1641 -20.3125 C 72.0703 -20.3125 75.3418 -17.041 75.3418 -13.0859 C 75.3418 -9.13086 72.0703 -5.9082 68.1641 -5.9082 C 64.2578 -5.9082 61.0352 -9.13086 61.0352 -13.0859 L 61.0352 -20.3125 Z"/>
  </g>
  <g id="Light-S" transform="matrix(1 0 0 1 1107.28 696)">
   <path d="M 31.2988 -44.5801 L 31.2988 -25.8789 L 23.1934 -25.8789 C 15.7715 -25.8789 9.76562 -20.0195 9.76562 -12.5977 C 9.76562 -5.12695 15.7715 0.878906 23.1934 0.878906 C 30.5664 0.878906 36.5723 -5.12695 36.5723 -12.5977 L 36.5723 -20.7031 L 55.127 -20.7031 L 55.127 -12.5977 C 55.127 -5.12695 61.1816 0.878906 68.5547 0.878906 C 75.9277 0.878906 81.9336 -5.12695 81.9336 -12.5977 C 81.9336 -20.0195 75.9277 -25.8789 68.5547 -25.8789 L 60.4004 -25.8789 L 60.4004 -44.5801 L 68.5547 -44.5801 C 75.9277 -44.5801 81.9336 -50.4395 81.9336 -57.9102 C 81.9336 -65.332 75.9277 -71.3379 68.5547 -71.3379 C 61.1816 -71.3379 55.127 -65.332 55.127 -57.9102 L 55.127 -49.7559 L 36.5723 -49.7559 L 36.5723 -57.9102 C 36.5723 -65.332 30.5664 -71.3379 23.1934 -71.3379 C 15.7715 -71.3379 9.76562 -65.332 9.76562 -57.9102 C 9.76562 -50.4395 15.7715 -44.5801 23.1934 -44.5801 Z M 23.1934 -49.707 C 18.75 -49.707 15.0391 -53.418 15.0391 -57.9102 C 15.0391 -62.4023 18.75 -66.0645 23.1934 -66.0645 C 27.6367 -66.0645 31.2988 -62.4023 31.2988 -57.9102 L 31.2988 -49.707 Z M 68.5547 -49.707 L 60.4004 -49.707 L 60.4004 -57.9102 C 60.4004 -62.4023 64.1113 -66.0645 68.5547 -66.0645 C 72.998 -66.0645 76.6602 -62.4023 76.6602 -57.9102 C 76.6602 -53.418 72.998 -49.707 68.5547 -49.707 Z M 36.5723 -25.8301 L 36.5723 -44.6777 L 55.127 -44.6777 L 55.127 -25.8301 Z M 23.1934 -20.8008 L 31.2988 -20.8008 L 31.2988 -12.5977 C 31.2988 -8.10547 27.6367 -4.44336 23.1934 -4.44336 C 18.75 -4.44336 15.0391 -8.10547 15.0391 -12.5977 C 15.0391 -17.0898 18.75 -20.8008 23.1934 -20.8008 Z M 68.5547 -20.8008 C 72.998 -20.8008 76.6602 -17.0898 76.6602 -12.5977 C 76.6602 -8.10547 72.998 -4.44336 68.5547 -4.44336 C 64.1113 -4.44336 60.4004 -8.10547 60.4004 -12.5977 L 60.4004 -20.8008 Z"/>
  </g>
  <g id="Thin-S" transform="matrix(1 0 0 1 810.695 696)">
   <path d="M 31.8848 -45.8496 L 31.8848 -24.6094 L 22.4609 -24.6094 C 15.4785 -24.6094 9.76562 -18.9941 9.76562 -11.9629 C 9.76562 -4.98047 15.4785 0.78125 22.4609 0.78125 C 29.3945 0.78125 35.1074 -4.98047 35.1074 -11.9629 L 35.1074 -21.4355 L 56.3477 -21.4355 L 56.3477 -11.9629 C 56.3477 -4.98047 62.0605 0.78125 69.043 0.78125 C 75.9766 0.78125 81.6895 -4.98047 81.6895 -11.9629 C 81.6895 -18.9941 75.9766 -24.6094 69.043 -24.6094 L 59.6191 -24.6094 L 59.6191 -45.8496 L 69.043 -45.8496 C 75.9766 -45.8496 81.6895 -51.5137 81.6895 -58.5449 C 81.6895 -65.5273 75.9766 -71.2402 69.043 -71.2402 C 62.0605 -71.2402 56.3477 -65.5273 56.3477 -58.5449 L 56.3477 -49.0723 L 35.1074 -49.0723 L 35.1074 -58.5449 C 35.1074 -65.5273 29.3945 -71.2402 22.4609 -71.2402 C 15.4785 -71.2402 9.76562 -65.5273 9.76562 -58.5449 C 9.76562 -51.5137 15.4785 -45.8496 22.4609 -45.8496 Z M 22.4609 -49.0723 C 17.2852 -49.0723 12.9883 -53.3203 12.9883 -58.5449 C 12.9883 -63.7207 17.2852 -68.0176 22.4609 -68.0176 C 27.5879 -68.0176 31.8848 -63.7207 31.8848 -58.5449 L 31.8848 -49.0723 Z M 69.043 -49.0723 L 59.6191 -49.0723 L 59.6191 -58.5449 C 59.6191 -63.7207 63.8672 -68.0176 69.043 -68.0176 C 74.1699 -68.0176 78.4668 -63.7207 78.4668 -58.5449 C 78.4668 -53.3203 74.1699 -49.0723 69.043 -49.0723 Z M 35.1074 -24.6094 L 35.1074 -45.8984 L 56.3477 -45.8984 L 56.3477 -24.6094 Z M 22.4609 -21.4355 L 31.8848 -21.4355 L 31.8848 -11.9629 C 31.8848 -6.78711 27.5879 -2.49023 22.4609 -2.49023 C 17.2852 -2.49023 12.9883 -6.78711 12.9883 -11.9629 C 12.9883 -17.1875 17.2852 -21.4355 22.4609 -21.4355 Z M 69.043 -21.4355 C 74.1699 -21.4355 78.4668 -17.1875 78.4668 -11.9629 C 78.4668 -6.78711 74.1699 -2.49023 69.043 -2.49023 C 63.8672 -2.49023 59.6191 -6.78711 59.6191 -11.9629 L 59.6191 -21.4355 Z"/>
  </g>
  <g id="Ultralight-S" transform="matrix(1 0 0 1 514.032 696)">
   <path d="M 32.1777 -46.5332 L 32.1777 -23.9746 L 22.0703 -23.9746 C 15.332 -23.9746 9.76562 -18.457 9.76562 -11.6211 C 9.76562 -4.83398 15.332 0.683594 22.0703 0.683594 C 28.8086 0.683594 34.375 -4.83398 34.375 -11.6211 L 34.375 -21.7773 L 56.9824 -21.7773 L 56.9824 -11.6211 C 56.9824 -4.83398 62.5488 0.683594 69.2871 0.683594 C 76.0254 0.683594 81.5918 -4.83398 81.5918 -11.6211 C 81.5918 -18.457 76.0254 -23.9746 69.2871 -23.9746 L 59.1797 -23.9746 L 59.1797 -46.5332 L 69.2871 -46.5332 C 76.0254 -46.5332 81.5918 -52.0508 81.5918 -58.8379 C 81.5918 -65.625 76.0254 -71.1914 69.2871 -71.1914 C 62.5488 -71.1914 56.9824 -65.625 56.9824 -58.8379 L 56.9824 -48.7305 L 34.375 -48.7305 L 34.375 -58.8379 C 34.375 -65.625 28.8086 -71.1914 22.0703 -71.1914 C 15.332 -71.1914 9.76562 -65.625 9.76562 -58.8379 C 9.76562 -52.0508 15.332 -46.5332 22.0703 -46.5332 Z M 22.0703 -48.7305 C 16.5527 -48.7305 11.9629 -53.2715 11.9629 -58.8379 C 11.9629 -64.4531 16.5527 -68.9941 22.0703 -68.9941 C 27.5879 -68.9941 32.1777 -64.4531 32.1777 -58.8379 L 32.1777 -48.7305 Z M 69.2871 -48.7305 L 59.1797 -48.7305 L 59.1797 -58.8379 C 59.1797 -64.4531 63.7695 -68.9941 69.2871 -68.9941 C 74.8047 -68.9941 79.3945 -64.4531 79.3945 -58.8379 C 79.3945 -53.2715 74.8047 -48.7305 69.2871 -48.7305 Z M 34.375 -23.9746 L 34.375 -46.5332 L 56.9824 -46.5332 L 56.9824 -23.9746 Z M 22.0703 -21.7773 L 32.1777 -21.7773 L 32.1777 -11.6699 C 32.1777 -6.05469 27.5879 -1.51367 22.0703 -1.51367 C 16.5527 -1.51367 11.9629 -6.05469 11.9629 -11.6699 C 11.9629 -17.2363 16.5527 -21.7773 22.0703 -21.7773 Z M 69.2871 -21.7773 C 74.8047 -21.7773 79.3945 -17.2363 79.3945 -11.6699 C 79.3945 -6.05469 74.8047 -1.51367 69.2871 -1.51367 C 63.7695 -1.51367 59.1797 -6.05469 59.1797 -11.6699 L 59.1797 -21.7773 Z"/>
  </g>
 </g>
</svg>
